<svg width="24" height="24" viewBox="0 0 24 24" xmlns="http://www.w3.org/2000/svg">
    <g fill="none" fill-rule="evenodd">
        <path d="M0 0h24v24H0z"/>
        <path d="M19.25 18.25H4.75a1.74 1.74 0 0 1-1.477-.813 1.742 1.742 0 0 1-.106-1.682L4.5 13.074V9.94c0-4.12 3.136-7.493 7.139-7.682a7.454 7.454 0 0 1 5.537 2.064A7.433 7.433 0 0 1 19.5 9.75v3.324l1.325 2.666a1.75 1.75 0 0 1-1.576 2.51zm-10.205 1A3.002 3.002 0 0 0 12 21.75a3.002 3.002 0 0 0 2.955-2.5h-5.91z" fill="#111" fill-rule="nonzero"/>
    </g>
</svg>
