<svg width="24" height="24" viewBox="0 0 24 24" xmlns="http://www.w3.org/2000/svg">
    <g fill="none" fill-rule="evenodd">
        <path d="M0 0h24v24H0z"/>
        <path d="M5.75 1.745A2.754 2.754 0 0 0 3 4.495v9.25h8.25v-12h-5.5zm7 0v12H21v-9.25a2.754 2.754 0 0 0-2.75-2.75h-5.5zm-3.5 6a.75.75 0 1 1 0 1.5.75.75 0 0 1 0-1.5zm5.5 0a.75.75 0 1 1 0 1.5.75.75 0 0 1 0-1.5zM3 15.245v2h18v-2H3zm.106 3.5A2.76 2.76 0 0 0 4.5 20.438v1.057a.75.75 0 1 0 1.5 0v-.75h12v.75a.75.75 0 1 0 1.5 0v-1.057a2.76 2.76 0 0 0 1.394-1.693H3.106z" fill="#111" fill-rule="nonzero"/>
    </g>
</svg>
