<svg width="24" height="24" viewBox="0 0 24 24" xmlns="http://www.w3.org/2000/svg">
    <g fill="none" fill-rule="evenodd">
        <path d="M0 0h24v24H0z"/>
        <path d="M17.5 8A2.503 2.503 0 0 1 15 5.5C15 4.122 16.121 3 17.5 3 18.878 3 20 4.122 20 5.5S18.878 8 17.5 8zm-11 0A2.503 2.503 0 0 1 4 5.5C4 4.122 5.122 3 6.5 3S9 4.122 9 5.5 7.878 8 6.5 8zm5.5 3.5A2.503 2.503 0 0 1 9.5 9c0-1.378 1.121-2.5 2.5-2.5s2.5 1.122 2.5 2.5-1.121 2.5-2.5 2.5zm5.5 3.5a2.503 2.503 0 0 1-2.5-2.5c0-1.379 1.121-2.5 2.5-2.5 1.378 0 2.5 1.121 2.5 2.5S18.878 15 17.5 15zm-11 0A2.503 2.503 0 0 1 4 12.5C4 11.121 5.122 10 6.5 10S9 11.121 9 12.5 7.878 15 6.5 15zM22 18.269C22 19.699 20.177 21 17.5 21S13 19.698 13 18.269v-.338c0-.514.417-.931.931-.931h7.138c.514 0 .931.417.931.931v.338zm-11 0C11 19.699 9.177 21 6.5 21 3.824 21 2 19.698 2 18.269v-.338c0-.514.417-.931.931-.931h7.138c.514 0 .931.417.931.931v.338z" fill="#111" fill-rule="nonzero"/>
    </g>
</svg>
