<svg width="24" height="24" viewBox="0 0 24 24" xmlns="http://www.w3.org/2000/svg">
    <g fill="none" fill-rule="evenodd">
        <path d="M0 0h24v24H0z"/>
        <path d="M7.535 18.869a17.56 17.56 0 0 1 9.118.05l2 .547A9.963 9.963 0 0 1 12 22a9.963 9.963 0 0 1-6.653-2.534l2-.547zM12 2c5.523 0 10 4.477 10 10a9.953 9.953 0 0 1-1.56 5.366l-3.298-.9-.195-.053a19.542 19.542 0 0 0-3.54-.59v-2.241l-.002-.047-.002-.053a2.86 2.86 0 0 0-.53-1.41l-.056-.075a2.94 2.94 0 0 0-1.048-.843l-.012-.005-.056-.034a5.142 5.142 0 0 1-.334-.213l-.076-.057c-.394-.297-.558-.58-.54-1.04a1.62 1.62 0 0 1 .602-1.221c.36-.287.825-.396 1.27-.3.72.149 1.163.798 1.128 1.684v.054a1.25 1.25 0 0 0 2.499.043c.08-2.045-1.132-3.818-3.11-4.227a4.012 4.012 0 0 0-3.344.79 4.115 4.115 0 0 0-1.544 3.09c-.052 1.358.536 2.37 1.532 3.122l.045.034c.16.118.283.2.496.33l.196.119c.043.025.087.048.132.068l.04.02c.074.038.12.08.155.127l.02.03c.017.03.03.062.038.094v2.14c-1.36.078-2.715.299-4.048.663l-3.298.901A9.953 9.953 0 0 1 2 12C2 6.477 6.477 2 12 2z" fill="#111"/>
    </g>
</svg>
