<svg width="236" height="80" viewBox="0 0 236 80" xmlns="http://www.w3.org/2000/svg">
    <g fill="#FFF" fill-rule="evenodd">
        <g font-size="32">
            <text font-family="Inter-Regular_ExtraBold, Inter" font-weight="700" transform="translate(100 4)">
                            <tspan x="0" y="31">SNACK</tspan>
                        </text>
            <text font-family="Inter-Light, Inter" font-weight="300" transform="translate(100 4)">
                            <tspan x="0" y="67">STYLING</tspan>
                        </text>
        </g>
        <path d="M22.14 67.474a70.241 70.241 0 0 1 36.47.201l8.002 2.188A39.85 39.85 0 0 1 40 80a39.85 39.85 0 0 1-26.612-10.137l8.001-2.188zM40 0c22.091 0 40 17.909 40 40 0 7.9-2.29 15.264-6.242 21.467L60.57 57.862l-.781-.21a78.166 78.166 0 0 0-14.164-2.36v-8.965l-.003-.189-.011-.212a9.942 9.942 0 0 0-.324-1.858 11.439 11.439 0 0 0-1.796-3.782l-.225-.3c-1.071-1.382-2.472-2.533-4.188-3.37l-.062-.028.007.004-.189-.114c-.666-.402-1.024-.629-1.365-.872l-.306-.225c-1.576-1.19-2.232-2.32-2.161-4.161.062-1.943.949-3.72 2.411-4.884a6.073 6.073 0 0 1 5.076-1.2c2.882.596 4.655 3.191 4.517 6.735l-.004.217a5 5 0 0 0 9.996.173c.32-8.18-4.526-15.275-12.441-16.908-4.668-1.01-9.585.145-13.371 3.158-3.766 2.997-6.024 7.522-6.178 12.357-.21 5.434 2.144 9.484 6.128 12.493l.178.134c.639.475 1.133.801 1.984 1.321l.787.475a5 5 0 0 0 .525.274l.158.077c.298.154.487.321.624.51l.076.117c.07.12.123.25.157.378v8.565a78.15 78.15 0 0 0-16.195 2.65L6.242 61.467A39.813 39.813 0 0 1 0 40C0 17.909 17.909 0 40 0z"/>
    </g>
</svg>
