<svg width="155" height="240" viewBox="0 0 155 240" xmlns="http://www.w3.org/2000/svg" xmlns:xlink="http://www.w3.org/1999/xlink">
    <defs>
        <path d="M45.865 0s.705 71.646.634 95.564C46.499 120.71 44.956 196 44.956 196h-25.6s-3.33-73.662-6.114-98.1C10.87 77.199 0 15.683 0 15.683V0h45.865z" id="f5hf51s6ua"/>
        <path d="M63.084 0S47.442 75.57 42.376 100.703C37.559 124.567 25.6 196 25.6 196L0 194.665s5.18-72.82 6.626-97.166c1.034-17.738 3.437-52.56 4.24-71.005.624-14.482.787-26.427.787-26.427L63.084 0z" id="vfp58fl4cc"/>
    </defs>
    <g fill="none" fill-rule="evenodd">
        <path d="M0 0h155v240H0z"/>
        <g transform="translate(76.496 22)">
            <mask id="afoed0wlvb" fill="#fff">
                <use xlink:href="#f5hf51s6ua"/>
            </mask>
            <use fill="#CCC" fill-rule="nonzero" xlink:href="#f5hf51s6ua"/>
            <path fill="#000" fill-rule="nonzero" opacity=".06" mask="url(#afoed0wlvb)" d="m17.233 191.329.214 7.687 30.095.254.268-7.568z"/>
        </g>
        <path d="M87.837 104.843c6.547-32.313 5.892-72.78 5.892-72.78l-14.806 20.73c3.068 14.148 6.042 35.953 8.914 52.05z" fill="#000" fill-rule="nonzero" opacity=".057"/>
        <g transform="translate(33 22)">
            <mask id="wup9aa088d" fill="#fff">
                <use xlink:href="#vfp58fl4cc"/>
            </mask>
            <use fill="#CCC" fill-rule="nonzero" xlink:href="#vfp58fl4cc"/>
            <path fill="#000" fill-rule="nonzero" opacity=".06" mask="url(#wup9aa088d)" d="m-3.654 189.794-1.088 7.714 29.97 1.869 1.57-7.475z"/>
        </g>
        <path fill="#000" opacity=".06" d="M44.696 22h77.666l.379 5.981H44.214z"/>
    </g>
</svg>
