<svg width="155" height="240" viewBox="0 0 155 240" xmlns="http://www.w3.org/2000/svg">
    <g fill="none" fill-rule="evenodd">
        <path d="M0 0h155v240H0z"/>
        <g fill-rule="nonzero">
            <path d="M58.236 48s18.482 12.847 45.858 0c0 0 27.849 11.882 29.304 24.984 1.455 13.102 4.602 61.87 4.602 61.87h-21.082l.964 58.146h-75.89l2.675-58.147H18s6.367-63.434 13.115-71.386C37.864 55.515 58.236 48 58.236 48z" fill="#CCC"/>
            <path d="M58.236 48s-2.455.91-5.948 2.42c3.438 3.476 11.587 9.48 27.122 9.936a48.246 48.246 0 0 0 30.45-9.59c-3.402-1.82-5.766-2.766-5.766-2.766-27.376 12.847-45.858 0-45.858 0z" fill="#000" opacity=".06"/>
            <path fill="#000" opacity=".057" d="M45.085 99.078 38.1 134.58l6.567.255 1.255-35.757zM116.918 134.835l3.801-.255-4.583-35.502h-.328z"/>
        </g>
    </g>
</svg>
