<svg width="24" height="24" viewBox="0 0 24 24" xmlns="http://www.w3.org/2000/svg">
    <g fill="none" fill-rule="evenodd">
        <path d="M0 0h24v24H0z"/>
        <path d="M11.988 1.74a.756.756 0 0 0-.108.01H5.75C4.24 1.75 3 2.99 3 4.5v9.378a.75.75 0 0 0 0 .243v2.757a.75.75 0 0 0 0 .243V18c0 1.053.622 1.947 1.5 2.408v1.092a.75.75 0 1 0 1.5 0v-.75h12v.75a.75.75 0 1 0 1.5 0v-1.092c.877-.461 1.5-1.355 1.5-2.408v-.877a.75.75 0 0 0 0-.243v-2.757a.75.75 0 0 0 0-.243V4.5c0-1.51-1.24-2.75-2.75-2.75h-6.127a.754.754 0 0 0-.135-.011zM5.75 3.25h5.5v10H4.5V4.5c0-.698.55-1.25 1.25-1.25zm7 0h5.5c.699 0 1.25.552 1.25 1.25v8.75h-6.75v-10zm-3.5 4.5a.75.75 0 1 0 0 1.5.75.75 0 0 0 0-1.5zm5.5 0a.75.75 0 1 0 0 1.5.75.75 0 0 0 0-1.5zm-10.25 7h7.377a.75.75 0 0 0 .243 0h7.38v1.5h-15v-1.5zm0 3h15V18c0 .7-.551 1.25-1.25 1.25H5.75c-.7 0-1.25-.55-1.25-1.25v-.25z" fill="#111" fill-rule="nonzero"/>
    </g>
</svg>
