<svg width="24" height="24" viewBox="0 0 24 24" xmlns="http://www.w3.org/2000/svg">
    <g fill="none" fill-rule="evenodd">
        <path d="M0 0h24v24H0z"/>
        <path d="M6.5 3c-.77 0-1.444.316-1.873.799A2.547 2.547 0 0 0 4 5.5c0 .604.198 1.218.627 1.701C5.057 7.684 5.729 8 6.5 8c.77 0 1.444-.316 1.873-.799C8.803 6.718 9 6.104 9 5.5c0-.604-.198-1.218-.627-1.701C7.943 3.316 7.271 3 6.5 3zm11 0c-.77 0-1.444.316-1.873.799A2.547 2.547 0 0 0 15 5.5c0 .604.198 1.218.627 1.701.43.483 1.102.799 1.873.799.77 0 1.444-.316 1.873-.799.43-.483.627-1.097.627-1.701 0-.604-.198-1.218-.627-1.701C18.943 3.316 18.271 3 17.5 3zm-11 1.5c.396 0 .598.121.752.295.154.173.248.434.248.705 0 .27-.094.532-.248.705-.154.174-.356.295-.752.295s-.598-.121-.752-.295A1.08 1.08 0 0 1 5.5 5.5c0-.27.094-.532.248-.705.154-.174.356-.295.752-.295zm11 0c.396 0 .598.121.752.295.154.173.248.434.248.705 0 .27-.094.532-.248.705-.154.174-.356.295-.752.295s-.598-.121-.752-.295A1.08 1.08 0 0 1 16.5 5.5c0-.27.094-.532.248-.705.154-.174.356-.295.752-.295zm-5.5 2c-.77 0-1.444.316-1.873.799A2.547 2.547 0 0 0 9.5 9c0 .604.198 1.218.627 1.701.43.483 1.102.799 1.873.799.77 0 1.444-.316 1.873-.799.43-.483.627-1.097.627-1.701 0-.604-.198-1.218-.627-1.701-.43-.483-1.102-.799-1.873-.799zM12 8c.396 0 .598.121.752.295.154.173.248.434.248.705 0 .27-.094.532-.248.705-.154.174-.356.295-.752.295s-.598-.121-.752-.295A1.08 1.08 0 0 1 11 9c0-.27.094-.532.248-.705C11.402 8.12 11.604 8 12 8zm-5.5 2c-.77 0-1.444.316-1.873.799A2.547 2.547 0 0 0 4 12.5c0 .604.198 1.218.627 1.701.43.483 1.102.799 1.873.799.77 0 1.444-.316 1.873-.799.43-.483.627-1.097.627-1.701 0-.604-.198-1.218-.627-1.701C7.943 10.316 7.271 10 6.5 10zm11 0c-.77 0-1.444.316-1.873.799A2.547 2.547 0 0 0 15 12.5c0 .604.198 1.218.627 1.701.43.483 1.102.799 1.873.799.77 0 1.444-.316 1.873-.799.43-.483.627-1.097.627-1.701 0-.604-.198-1.218-.627-1.701-.43-.483-1.102-.799-1.873-.799zm-11 1.5c.396 0 .598.121.752.295.154.173.248.434.248.705 0 .27-.094.532-.248.705-.154.174-.356.295-.752.295s-.598-.121-.752-.295A1.08 1.08 0 0 1 5.5 12.5c0-.27.094-.532.248-.705.154-.174.356-.295.752-.295zm11 0c.396 0 .598.121.752.295.154.173.248.434.248.705 0 .27-.094.532-.248.705-.154.174-.356.295-.752.295s-.598-.121-.752-.295a1.08 1.08 0 0 1-.248-.705c0-.27.094-.532.248-.705.154-.174.356-.295.752-.295zM3.526 16C2.692 16 2 16.692 2 17.526v.449c0 .914.577 1.701 1.385 2.216.807.515 1.878.81 3.115.81 1.237 0 2.307-.295 3.114-.81.808-.514 1.386-1.302 1.386-2.216v-.449C11 16.692 10.308 16 9.474 16H3.526zm11 0c-.834 0-1.526.692-1.526 1.526v.449c0 .914.577 1.701 1.385 2.216.807.515 1.878.81 3.115.81 1.237 0 2.307-.295 3.114-.81.808-.514 1.386-1.302 1.386-2.216v-.449c0-.834-.692-1.526-1.526-1.526h-5.948zm-11 1.5h5.948c.023 0 .026.003.026.026v.449c0 .277-.181.627-.691.952-.51.325-1.315.574-2.309.574-.994 0-1.799-.249-2.309-.574-.51-.326-.691-.676-.691-.952v-.449c0-.023.003-.026.026-.026zm11 0h5.948c.023 0 .026.003.026.026v.449c0 .277-.181.627-.691.952-.51.325-1.315.574-2.309.574-.994 0-1.799-.249-2.309-.574-.51-.326-.691-.676-.691-.952v-.449c0-.023.003-.026.026-.026z" fill="#111" fill-rule="nonzero"/>
    </g>
</svg>
