<svg width="24" height="24" viewBox="0 0 24 24" xmlns="http://www.w3.org/2000/svg">
    <g fill="none" fill-rule="evenodd">
        <path d="M0 0h24v24H0z"/>
        <path d="M7.535 18.869a17.552 17.552 0 0 1 8.643-.073l.475.123 2 .547A9.963 9.963 0 0 1 12 22a9.963 9.963 0 0 1-6.653-2.534l2.188-.597zM12 2c5.523 0 10 4.477 10 10a9.953 9.953 0 0 1-1.56 5.366l-3.493-.953a19.58 19.58 0 0 0-2.946-.537l-.594-.053-.002-2.288-.002-.053a2.862 2.862 0 0 0-.408-1.227l-.122-.183-.056-.075a2.906 2.906 0 0 0-.84-.732l-.22-.116-.283-.175-.107-.072-.076-.057c-.394-.297-.558-.58-.54-1.04a1.62 1.62 0 0 1 .602-1.221c.36-.287.825-.396 1.27-.3.675.14 1.107.719 1.13 1.52l-.003.218a1.25 1.25 0 0 0 2.5.043c.08-2.045-1.132-3.818-3.11-4.227a4.012 4.012 0 0 0-3.344.79 4.115 4.115 0 0 0-1.544 3.09c-.05 1.278.469 2.25 1.36 2.987l.217.169c.12.089.219.157.35.24l.146.09.26.155.107.051c.05.026.087.053.117.082l.039.046.02.03.022.046.016.048v2.14a19.497 19.497 0 0 0-3.476.516l-.572.147-3.298.901A9.953 9.953 0 0 1 2 12C2 6.477 6.477 2 12 2z" stroke="#111" stroke-width="1.5"/>
    </g>
</svg>
